<svg xmlns="http://www.w3.org/2000/svg" viewBox="0 0 160 160"><defs><linearGradient id="b" x1="0" x2="1" y1="0" y2="1"><stop stop-color="#fff1df"/><stop offset="1" stop-color="#8a4e19"/></linearGradient></defs><rect width="160" height="160" fill="url(#b)"/><path d="M34 154c8-40 27-59 46-59s38 19 46 59z" fill="#6d331d"/><path d="M58 108h44l-9 46H67z" fill="#f1bd55"/><circle cx="80" cy="62" r="26" fill="#7f4a31"/><path d="M49 56c8-25 52-28 61 1-21-8-40-8-61-1z" fill="#191312"/><rect x="68" y="94" width="24" height="28" rx="9" fill="#7f4a31"/><path d="M48 42c13-20 50-23 65 1l-5 13H53z" fill="#d45c48"/><path d="M55 41c18 9 35 9 51 0" stroke="#fff1df" stroke-width="5" fill="none"/><circle cx="70" cy="65" r="3" fill="#111"/><circle cx="91" cy="65" r="3" fill="#111"/><path d="M70 81c8 6 16 6 23 0" stroke="#24110c" stroke-width="3" fill="none" stroke-linecap="round"/></svg>
