<svg xmlns="http://www.w3.org/2000/svg" viewBox="0 0 160 160"><defs><linearGradient id="b" x1="0" x2="1" y1="0" y2="1"><stop stop-color="#e8fff0"/><stop offset="1" stop-color="#24513a"/></linearGradient></defs><rect width="160" height="160" fill="url(#b)"/><path d="M38 154c5-42 26-62 42-62s37 20 42 62z" fill="#1d7a45"/><path d="M62 96h36l9 58H53z" fill="#f3c84c"/><circle cx="80" cy="60" r="25" fill="#6f3f2d"/><path d="M52 52c5-27 50-28 56 0-13-7-38-7-56 0z" fill="#111"/><rect x="68" y="91" width="24" height="30" rx="9" fill="#6f3f2d"/><path d="M55 37c16-16 48-12 57 9" stroke="#f3c84c" stroke-width="8" fill="none" stroke-linecap="round"/><circle cx="70" cy="62" r="3" fill="#111"/><circle cx="91" cy="62" r="3" fill="#111"/><path d="M70 78c7 5 14 5 21 0" stroke="#20100c" stroke-width="3" fill="none" stroke-linecap="round"/></svg>
