<svg xmlns="http://www.w3.org/2000/svg" viewBox="0 0 160 160"><defs><linearGradient id="b" x1="0" x2="1" y1="0" y2="1"><stop stop-color="#f2efff"/><stop offset="1" stop-color="#4b3f75"/></linearGradient></defs><rect width="160" height="160" fill="url(#b)"/><path d="M36 154c6-39 25-58 44-58s38 19 44 58z" fill="#31405a"/><path d="M60 108h40l-8 46H68z" fill="#a9c0ff"/><circle cx="80" cy="61" r="25" fill="#8d563b"/><path d="M52 55c7-25 49-28 57 1-18-8-39-8-57-1z" fill="#1b1718"/><rect x="68" y="93" width="24" height="29" rx="9" fill="#8d563b"/><path d="M54 68h52" stroke="#151515" stroke-width="4" stroke-linecap="round"/><rect x="60" y="61" width="20" height="12" rx="4" fill="none" stroke="#151515" stroke-width="3"/><rect x="84" y="61" width="20" height="12" rx="4" fill="none" stroke="#151515" stroke-width="3"/><path d="M72 81c6 4 12 4 18 0" stroke="#2a1510" stroke-width="3" fill="none" stroke-linecap="round"/></svg>
