<svg xmlns="http://www.w3.org/2000/svg" viewBox="0 0 160 160"><defs><linearGradient id="b" x1="0" x2="1" y1="0" y2="1"><stop stop-color="#fff0e8"/><stop offset="1" stop-color="#7a3a24"/></linearGradient></defs><rect width="160" height="160" fill="url(#b)"/><path d="M35 154c7-40 26-59 45-59s38 19 45 59z" fill="#53362b"/><path d="M59 106h42l-6 48H65z" fill="#f7efe9"/><circle cx="80" cy="60" r="25" fill="#a87252"/><path d="M51 57c5-25 47-32 58 0-20-10-40-8-58 0z" fill="#211615"/><rect x="68" y="92" width="24" height="29" rx="9" fill="#a87252"/><path d="M49 38h62v13H49z" fill="#242424"/><path d="M80 26l45 17-45 17-45-17z" fill="#1a1a1a"/><circle cx="70" cy="63" r="3" fill="#111"/><circle cx="91" cy="63" r="3" fill="#111"/><path d="M71 79c6 5 12 5 18 0" stroke="#2a1710" stroke-width="3" fill="none" stroke-linecap="round"/></svg>
