<svg xmlns="http://www.w3.org/2000/svg" viewBox="0 0 160 160"><defs><linearGradient id="b" x1="0" x2="1" y1="0" y2="1"><stop stop-color="#e8f7ff"/><stop offset="1" stop-color="#24556c"/></linearGradient></defs><rect width="160" height="160" fill="url(#b)"/><path d="M37 154c6-39 25-58 43-58s37 19 43 58z" fill="#25556b"/><path d="M59 108h42l-9 46H68z" fill="#f6d05b"/><circle cx="80" cy="61" r="25" fill="#7d4a31"/><path d="M52 55c6-23 47-29 56 1-17-9-38-8-56-1z" fill="#161717"/><rect x="68" y="93" width="24" height="29" rx="9" fill="#7d4a31"/><path d="M52 112h56" stroke="#ffffff" stroke-width="7" stroke-linecap="round"/><circle cx="70" cy="64" r="3" fill="#111"/><circle cx="91" cy="64" r="3" fill="#111"/><path d="M70 80c7 5 14 5 21 0" stroke="#25120d" stroke-width="3" fill="none" stroke-linecap="round"/></svg>
