<svg xmlns="http://www.w3.org/2000/svg" viewBox="0 0 160 160"><defs><linearGradient id="b" x1="0" x2="1" y1="0" y2="1"><stop stop-color="#e9fff8"/><stop offset="1" stop-color="#24584a"/></linearGradient></defs><rect width="160" height="160" fill="url(#b)"/><path d="M36 154c6-40 25-59 44-59s38 19 44 59z" fill="#f8fbff"/><path d="M60 107h40l-8 47H68z" fill="#72b59f"/><circle cx="80" cy="60" r="25" fill="#8b563c"/><path d="M52 56c5-24 49-29 57 0-18-9-39-9-57 0z" fill="#201716"/><rect x="68" y="92" width="24" height="29" rx="9" fill="#8b563c"/><rect x="59" y="62" width="20" height="12" rx="4" fill="none" stroke="#111" stroke-width="3"/><rect x="84" y="62" width="20" height="12" rx="4" fill="none" stroke="#111" stroke-width="3"/><path d="M70 81c7 4 14 4 21 0" stroke="#2a1510" stroke-width="3" fill="none" stroke-linecap="round"/><path d="M52 121h56" stroke="#24584a" stroke-width="6" stroke-linecap="round"/></svg>
