<svg xmlns="http://www.w3.org/2000/svg" viewBox="0 0 160 160"><defs><linearGradient id="b" x1="0" x2="1" y1="0" y2="1"><stop stop-color="#f5f5ef"/><stop offset="1" stop-color="#50534b"/></linearGradient></defs><rect width="160" height="160" fill="url(#b)"/><path d="M35 154c7-40 26-60 45-60s38 20 45 60z" fill="#2f3331"/><path d="M58 108h44l-10 46H68z" fill="#e8e5da"/><circle cx="80" cy="60" r="25" fill="#8c5a40"/><path d="M51 55c5-23 48-29 58 0-18-8-39-8-58 0z" fill="#d9d6cc"/><rect x="68" y="92" width="24" height="29" rx="9" fill="#8c5a40"/><rect x="58" y="62" width="20" height="12" rx="4" fill="none" stroke="#111" stroke-width="3"/><rect x="84" y="62" width="20" height="12" rx="4" fill="none" stroke="#111" stroke-width="3"/><path d="M70 80c6 3 13 3 20 0" stroke="#2a1510" stroke-width="3" fill="none" stroke-linecap="round"/><path d="M50 120h60" stroke="#f1bd55" stroke-width="5" stroke-linecap="round"/></svg>
