<svg xmlns="http://www.w3.org/2000/svg" viewBox="0 0 160 160"><defs><linearGradient id="b" x1="0" x2="1" y1="0" y2="1"><stop stop-color="#dff7ff"/><stop offset="1" stop-color="#1d4d5a"/></linearGradient></defs><rect width="160" height="160" fill="url(#b)"/><circle cx="80" cy="58" r="32" fill="#5b3323"/><path d="M42 151c5-39 24-58 38-58s33 19 38 58z" fill="#f7fbff"/><path d="M56 104h48l-10 52H66z" fill="#8fd3e8"/><circle cx="80" cy="64" r="23" fill="#8f5b42"/><path d="M49 56c8-25 54-31 65 1-20-8-38-8-65-1z" fill="#171918"/><rect x="69" y="96" width="22" height="30" rx="9" fill="#8f5b42"/><path d="M51 119h58" stroke="#1b6072" stroke-width="7" stroke-linecap="round"/><circle cx="70" cy="66" r="3" fill="#171918"/><circle cx="91" cy="66" r="3" fill="#171918"/><path d="M72 79c6 5 12 5 18 0" stroke="#2a1712" stroke-width="3" fill="none" stroke-linecap="round"/></svg>
