<svg xmlns="http://www.w3.org/2000/svg" viewBox="0 0 160 160"><defs><linearGradient id="b" x1="0" x2="1" y1="0" y2="1"><stop stop-color="#f0f4fa"/><stop offset="1" stop-color="#27313c"/></linearGradient></defs><rect width="160" height="160" fill="url(#b)"/><path d="M34 154c6-40 26-60 46-60s40 20 46 60z" fill="#1d2732"/><path d="M59 108h42l-7 46H66z" fill="#536271"/><circle cx="80" cy="61" r="25" fill="#75472f"/><path d="M48 51h64l-8-18H56z" fill="#202933"/><path d="M55 47c8-18 42-18 50 0z" fill="#263442"/><rect x="69" y="93" width="22" height="29" rx="9" fill="#75472f"/><circle cx="70" cy="64" r="3" fill="#111"/><circle cx="91" cy="64" r="3" fill="#111"/><path d="M71 80c6 4 12 4 18 0" stroke="#21100b" stroke-width="3" fill="none" stroke-linecap="round"/><path d="M75 36h10v10H75z" fill="#f1bd55"/></svg>
