<svg xmlns="http://www.w3.org/2000/svg" viewBox="0 0 160 160"><defs><linearGradient id="b" x1="0" x2="1" y1="0" y2="1"><stop stop-color="#fff6cf"/><stop offset="1" stop-color="#6b4f12"/></linearGradient></defs><rect width="160" height="160" fill="url(#b)"/><path d="M36 154c7-39 25-58 44-58s37 19 44 58z" fill="#222a35"/><path d="M59 106h42l-8 48H67z" fill="#f1bd55"/><circle cx="80" cy="60" r="26" fill="#9a6646"/><path d="M52 58c2-23 18-34 35-31 16 3 24 14 22 31-19-10-36-11-57 0z" fill="#151515"/><rect x="68" y="92" width="24" height="28" rx="9" fill="#9a6646"/><path d="M48 113h64" stroke="#f1bd55" stroke-width="7" stroke-linecap="round"/><circle cx="70" cy="63" r="3" fill="#111"/><circle cx="91" cy="63" r="3" fill="#111"/><path d="M70 78c7 6 14 6 21 0" stroke="#2d1710" stroke-width="3" fill="none" stroke-linecap="round"/></svg>
